HIERARCHY
ROOT root
{
	OFFSET 0.000000 0.000000 0.000000
	CHANNELS 6 Xposition Yposition Zposition Zrotation Yrotation Xrotation
	JOINT lhip
	{
		OFFSET 0.058581 -0.082280 -0.017664
		CHANNELS 3 Zrotation Yrotation Xrotation
		JOINT lknee
		{
			OFFSET 0.043451 -0.386469 0.008037
			CHANNELS 3 Zrotation Yrotation Xrotation
			JOINT lankle
			{
				OFFSET -0.014790 -0.426874 -0.037428
				CHANNELS 3 Zrotation Yrotation Xrotation
				JOINT ltoe
				{
					OFFSET 0.041054 -0.060286 0.122042
					CHANNELS 3 Zrotation Yrotation Xrotation
					End Site
					{
						OFFSET 0.000000 0.000000 0.000000
					}
				}
			}
		}
	}
	JOINT rhip
	{
		OFFSET -0.060310 -0.090513 -0.013543
		CHANNELS 3 Zrotation Yrotation Xrotation
		JOINT rknee
		{
			OFFSET -0.043257 -0.383688 -0.004843
			CHANNELS 3 Zrotation Yrotation Xrotation
			JOINT rankle
			{
				OFFSET 0.019056 -0.420046 -0.034562
				CHANNELS 3 Zrotation Yrotation Xrotation
				JOINT rtoe
				{
					OFFSET -0.034840 -0.062106 0.130323
					CHANNELS 3 Zrotation Yrotation Xrotation
					End Site
					{
						OFFSET 0.000000 0.000000 0.000000
					}
				}
			}
		}
	}
	JOINT lowerback
	{
		OFFSET 0.004439 0.124404 -0.038385
		CHANNELS 3 Zrotation Yrotation Xrotation
		JOINT upperback
		{
			OFFSET 0.004488 0.137956 0.026820
			CHANNELS 3 Zrotation Yrotation Xrotation
			JOINT chest
			{
				OFFSET -0.002265 0.056032 0.002855
				CHANNELS 3 Zrotation Yrotation Xrotation
				JOINT lowerneck
				{
					OFFSET -0.013390 0.211636 -0.033468
					CHANNELS 3 Zrotation Yrotation Xrotation
					JOINT upperneck
					{
						OFFSET 0.010113 0.088937 0.050410
						CHANNELS 3 Zrotation Yrotation Xrotation
						End Site
						{
							OFFSET 0.000000 0.000000 0.000000
						}
					}
				}
				JOINT lclavicle
				{
					OFFSET 0.071702 0.114000 -0.018898
					CHANNELS 3 Zrotation Yrotation Xrotation
					JOINT lshoulder
					{
						OFFSET 0.122921 0.045205 -0.019046
						CHANNELS 3 Zrotation Yrotation Xrotation
						JOINT lelbow
						{
							OFFSET 0.255332 -0.015649 -0.022946
							CHANNELS 3 Zrotation Yrotation Xrotation
							JOINT lwrist
							{
								OFFSET 0.265709 0.012698 -0.007375
								CHANNELS 3 Zrotation Yrotation Xrotation
								End Site
								{
									OFFSET 0.000000 0.000000 0.000000
								}
							}
						}
					}
				}
				JOINT rclavicle
				{
					OFFSET -0.082954 0.112472 -0.023707
					CHANNELS 3 Zrotation Yrotation Xrotation
					JOINT rshoulder
					{
						OFFSET -0.113228 0.046853 -0.008472
						CHANNELS 3 Zrotation Yrotation Xrotation
						JOINT relbow
						{
							OFFSET -0.260127 -0.014369 -0.031269
							CHANNELS 3 Zrotation Yrotation Xrotation
							JOINT rwrist
							{
								OFFSET -0.269108 0.006794 -0.006027
								CHANNELS 3 Zrotation Yrotation Xrotation
								End Site
								{
									OFFSET 0.000000 0.000000 0.000000
								}
							}
						}
					}
				}
			}
		}
	}
}
MOTION
Frames: 14
Frame Time: 0.033333
-0.088966 0.233397 0.969595 95.651623 0.208298 80.703828 5.045151 0.370025 -14.760286 -12.251099 -4.027286 35.964621 0.143718 12.608792 -14.551099 0.000000 -0.000000 0.000000 -5.571584 -3.587053 -13.563274 2.345773 -1.870947 37.392600 1.528298 -9.051355 -19.767883 0.000000 -0.000000 0.000000 0.094163 1.414047 31.837004 0.328289 -2.091112 14.449144 2.652321 3.656199 6.669740 0.025341 -0.509998 30.573302 13.365383 -1.707205 -42.372392 18.285660 0.861613 -1.726990 -8.340627 -10.449671 -24.253876 89.991956 -51.527966 -78.273933 16.778106 -18.013218 -16.726578 -22.231789 7.571077 -2.359251 11.287612 11.293871 -32.117358 -91.436757 53.135443 -64.681617 -24.426393 18.649360 -5.027598 
-0.085874 0.237140 0.959472 97.330809 0.883660 78.887428 5.325619 0.093756 -15.035553 -13.501586 -4.275876 40.238236 1.001915 12.578475 -16.517774 0.000000 -0.000000 0.000000 -5.755200 -3.665555 -12.592034 2.449912 -2.875858 40.583466 1.238943 -9.612511 -22.128987 0.000000 -0.000000 0.000000 1.551064 1.263841 33.163621 2.286884 -1.380640 12.750519 3.928564 3.323884 7.729216 0.632546 -0.079441 32.282097 12.946633 -3.097233 -44.223115 20.560259 4.823719 -2.391912 -7.911750 -9.385869 -24.630898 89.302348 -52.199517 -76.271086 13.455674 -17.535605 -14.983239 -22.521870 7.590038 -2.996346 11.420826 14.529296 -30.663176 -84.773028 53.669190 -62.905420 -21.098538 15.032483 -13.585385 
-0.082417 0.239870 0.947493 98.077828 1.348063 76.570357 5.785881 0.292988 -14.397152 -14.693115 -4.007095 43.964016 1.741687 12.767461 -18.397592 0.000000 -0.000000 0.000000 -6.050983 -4.033573 -11.174719 2.747871 -3.376177 43.674536 1.109355 -9.802827 -24.256452 0.000000 -0.000000 0.000000 2.028953 1.815274 33.284587 4.140334 -0.628868 13.741526 4.977552 3.122092 8.395503 2.193381 0.636454 32.662402 12.497367 -4.640424 -45.047825 22.905218 7.423210 -2.691148 -7.123221 -8.641534 -25.928554 88.309442 -51.887356 -76.153530 10.470535 -16.376881 -13.965988 -22.469019 7.844732 -3.723371 11.728541 16.917751 -29.281280 -79.019156 53.809438 -64.025227 -17.517742 12.045165 -23.666196 
-0.078887 0.240831 0.938011 98.181104 1.508915 74.782922 6.118397 0.871117 -13.638327 -15.593322 -3.862898 46.482729 2.173097 13.182453 -19.839558 0.000000 -0.000000 0.000000 -6.421075 -4.619584 -9.962345 3.098390 -3.296080 45.692702 0.871643 -9.817978 -25.832151 0.000000 -0.000000 0.000000 1.882292 2.510788 32.643409 5.291236 -0.246801 15.662002 5.473464 3.368218 8.526596 3.608739 1.359927 32.709592 12.446732 -5.680521 -45.543819 24.224732 8.847474 -3.002591 -5.604680 -8.651879 -27.674146 88.110097 -51.751041 -78.418859 11.694839 -14.361348 -12.898941 -21.909449 8.417545 -4.035402 12.951985 18.053055 -28.015110 -75.294862 54.716164 -67.125418 -17.358659 9.784007 -31.579561 
-0.075501 0.241296 0.934681 98.166370 1.486032 73.630979 6.098312 1.196008 -12.500438 -16.014681 -4.196670 47.129613 2.414434 13.563932 -20.362019 0.000000 -0.000000 0.000000 -6.853420 -5.022898 -8.660667 3.454791 -3.121942 46.035556 0.867913 -9.692355 -26.280838 0.000000 -0.000000 0.000000 1.718939 2.956050 31.414451 5.679665 -0.292207 17.788806 5.595726 3.601783 8.391854 4.228794 2.068436 32.933080 12.281017 -5.962105 -44.813387 23.655985 8.637821 -3.534300 -3.913974 -9.703589 -29.727715 90.732012 -52.451833 -83.131726 14.781194 -12.581363 -7.827629 -20.750237 9.233497 -3.361918 13.610337 18.319484 -27.704559 -73.201214 56.348306 -70.150199 -16.219958 8.544890 -34.481756 
-0.073116 0.240889 0.938399 98.080193 1.420342 73.456970 5.924302 1.136502 -11.467554 -15.560603 -4.528204 45.820065 2.132946 13.315569 -19.956762 0.000000 -0.000000 0.000000 -6.805517 -5.048127 -7.644206 3.252379 -2.989115 44.582272 0.770801 -9.386103 -25.697620 0.000000 -0.000000 0.000000 1.733421 2.833114 30.785777 5.158231 -0.519217 18.338411 5.501959 3.554800 8.169501 4.154629 3.021755 33.286771 12.196683 -5.852554 -44.550273 22.426524 7.272217 -4.616545 -4.400675 -11.946947 -30.436174 95.682685 -52.121096 -87.131541 16.702840 -13.305851 -1.944396 -20.411795 10.110864 -3.100892 15.042463 17.797084 -26.464437 -72.220008 57.971365 -70.496848 -12.895811 9.297652 -36.646991 
-0.072424 0.239786 0.946768 98.153877 1.405731 74.194437 5.818398 0.973574 -10.852722 -14.698164 -4.883117 43.115542 1.569543 12.676846 -18.723272 0.000000 -0.000000 0.000000 -6.368810 -5.017764 -7.157529 2.822143 -2.864189 41.968301 0.798389 -9.464212 -24.297304 0.000000 -0.000000 0.000000 1.621162 2.393453 30.523128 4.066748 -1.064217 17.875055 5.493436 3.124684 7.872670 3.488433 3.443540 32.489256 12.011828 -4.810960 -44.127834 20.310288 4.089687 -5.528962 -5.607567 -12.523482 -29.816244 101.188150 -51.065290 -89.796340 20.510349 -16.199563 4.504083 -20.651620 11.181942 -3.429515 15.284012 15.908392 -25.437230 -70.611586 60.748604 -69.992379 -10.640033 10.628376 -37.788420 
-0.073483 0.238056 0.956774 98.211700 1.543687 75.652803 5.946295 0.872101 -10.946123 -13.769905 -5.294564 40.076648 0.746306 11.963323 -17.385210 0.000000 -0.000000 0.000000 -5.557252 -4.762896 -7.350541 2.257373 -2.856527 38.809555 0.557367 -9.529655 -22.660489 0.000000 -0.000000 0.000000 1.434210 1.686033 30.885954 2.585706 -1.733146 16.517805 5.429906 2.340726 7.134275 2.766062 3.453280 31.662373 12.157686 -3.170020 -43.607825 17.585052 0.525966 -6.103428 -6.861497 -12.600367 -28.715485 104.998817 -49.929377 -89.140614 23.222872 -18.654741 15.081770 -20.931972 12.082565 -3.180456 14.008157 13.752332 -25.456716 -70.120977 63.394983 -69.221029 -9.015060 12.305197 -36.305541 
-0.076006 0.236098 0.965417 98.249698 1.573282 77.457149 6.074750 0.635838 -11.735575 -12.958037 -5.177710 37.517630 0.089649 11.384100 -16.372919 0.000000 -0.000000 0.000000 -5.055132 -4.619193 -8.226280 2.080087 -2.925891 36.359961 1.106639 -9.607561 -21.207484 0.000000 -0.000000 0.000000 1.003053 1.016752 31.036099 1.077432 -2.561258 15.348655 5.258339 1.614248 6.433373 1.769322 3.197337 30.309715 12.500400 -0.814793 -42.809459 15.219955 -2.915399 -6.277629 -8.637991 -12.704119 -27.200996 106.077697 -48.511495 -85.302100 23.550799 -19.189591 25.160088 -21.402623 12.289777 -3.106215 11.750672 11.034269 -26.200745 -72.161647 65.094051 -68.460378 -4.203437 15.530976 -32.356121 
-0.078917 0.233571 0.970546 97.836336 1.674156 78.749891 6.517117 0.627253 -12.408651 -12.470255 -4.762269 35.907055 -0.360111 10.963188 -15.550796 0.000000 -0.000000 0.000000 -4.631113 -4.630672 -9.218207 2.135792 -2.901255 34.907649 0.772425 -9.470363 -20.305736 0.000000 -0.000000 0.000000 0.597716 0.415196 31.582339 -0.422243 -3.420039 14.433445 4.790086 0.968818 5.635507 0.926532 2.609028 29.723108 12.888268 1.236719 -42.451580 13.618858 -6.413557 -5.687701 -10.788866 -12.804309 -26.039925 103.836941 -46.837602 -80.571595 21.361661 -18.397683 27.399639 -22.782684 12.369776 -3.491493 10.534619 8.612410 -27.327791 -76.638648 65.111128 -68.088562 0.044842 17.884401 -26.110473 
-0.080969 0.230591 0.969824 96.966457 1.770563 79.097668 7.128516 0.958848 -13.000057 -12.691049 -4.431563 36.252566 -0.518126 11.188041 -15.482352 0.000000 -0.000000 0.000000 -4.429793 -4.854697 -10.162863 2.648792 -2.501720 35.404979 0.599913 -9.226121 -20.036093 0.000000 -0.000000 0.000000 -0.089037 0.111365 32.466538 -1.808094 -4.119333 13.390046 3.994788 0.604926 5.598790 -0.129296 1.584645 29.486808 13.394557 3.620184 -42.007097 12.546477 -8.845835 -4.621290 -11.624121 -14.116033 -25.782359 98.156259 -47.260611 -77.711909 20.183493 -16.223364 23.513139 -23.770340 11.559395 -3.524019 8.923308 6.244342 -29.624344 -80.877310 65.240001 -68.005195 2.010969 17.478160 -18.865235 
-0.081256 0.227191 0.962399 95.499700 1.827272 78.148467 7.986653 1.518593 -12.961807 -13.723031 -4.146251 38.364639 -0.434345 12.046415 -16.279643 0.000000 -0.000000 0.000000 -4.249170 -4.891059 -10.711742 3.467925 -1.649728 37.746439 0.008289 -9.277389 -20.960942 0.000000 -0.000000 0.000000 -1.405159 0.347748 32.475633 -2.928107 -4.567626 14.361239 3.120299 0.745966 6.085716 -0.307901 0.743580 29.175682 13.730556 5.539243 -40.934094 12.466436 -11.514117 -3.200516 -11.842413 -15.321589 -25.591670 91.016413 -47.425806 -77.927765 19.744676 -12.831586 13.091616 -24.714497 10.876510 -3.465948 7.051453 3.853873 -31.978318 -82.245516 64.202514 -67.073871 1.918418 15.431326 -13.888436 
-0.079175 0.224117 0.951524 94.322878 1.796273 76.433390 8.761263 1.893438 -12.422952 -14.754568 -3.523826 41.485249 -0.002007 12.877640 -18.012124 0.000000 -0.000000 0.000000 -4.575714 -4.931762 -10.607646 4.477800 -1.486502 41.107898 0.108015 -9.116917 -22.271739 0.000000 -0.000000 0.000000 -2.763815 0.312542 34.239616 -3.970174 -5.296047 13.025030 2.420849 0.568224 7.196672 -1.915178 -0.150402 29.724363 14.444618 7.913207 -41.119297 12.703936 -11.711786 -2.748323 -13.690772 -17.825720 -24.045305 86.189786 -47.437349 -81.427098 18.277181 -8.677019 -2.047053 -25.658969 9.144115 -4.116768 5.908898 4.181967 -34.500896 -82.873762 63.773884 -66.208310 2.134453 12.426702 -9.886468 
-0.077056 0.222850 0.939993 93.532506 1.861407 74.781084 9.172769 1.779373 -11.946009 -15.631193 -3.189571 44.442432 0.602054 14.337479 -19.837594 0.000000 -0.000000 0.000000 -5.113632 -5.397010 -10.209298 5.676257 -1.360861 43.969246 -0.552085 -8.726715 -23.934073 0.000000 -0.000000 0.000000 -3.642968 0.653750 34.055623 -4.456220 -5.883205 14.162744 1.761186 0.605835 7.942172 -2.983367 -1.667572 29.794446 14.660405 9.278506 -40.162260 13.104234 -12.531826 -1.781257 -15.707950 -21.240519 -22.908031 83.512851 -46.376075 -88.703241 15.342083 -2.636595 -14.838549 -25.782866 8.176517 -4.708623 4.440033 4.141602 -36.151315 -85.043858 61.642924 -68.088595 4.104871 8.568696 -5.677655 
